<?xml version="1.0" standalone="no"?>
<!DOCTYPE svg PUBLIC "-//W3C//DTD SVG 20010904//EN"
 "http://www.w3.org/TR/2001/REC-SVG-20010904/DTD/svg10.dtd">
<svg version="1.0" xmlns="http://www.w3.org/2000/svg"
 width="260.000000pt" height="260.000000pt" viewBox="0 0 260.000000 260.000000"
 preserveAspectRatio="xMidYMid meet">
<metadata>
Created by potrace 1.11, written by Peter Selinger 2001-2013
</metadata>
<g transform="translate(0.000000,260.000000) scale(0.100000,-0.100000)"
fill="#000000" stroke="none">
<path d="M0 1300 l0 -1300 1300 0 1300 0 0 1300 0 1300 -1300 0 -1300 0 0
-1300z m931 534 c85 -19 179 -61 229 -103 l35 -30 -45 -45 -44 -46 -31 28
c-70 66 -149 95 -255 94 -128 0 -220 -40 -303 -132 -85 -95 -121 -222 -99
-349 14 -83 34 -131 81 -191 82 -105 178 -152 314 -153 109 -1 191 28 262 95
l31 28 43 -44 43 -44 -33 -31 c-69 -64 -235 -121 -349 -121 -62 0 -188 32
-254 64 -205 100 -320 366 -260 600 49 189 206 341 389 375 32 6 61 13 63 16
11 11 113 4 183 -11z m721 -161 c74 -93 208 -262 298 -376 l165 -209 5 374 5
373 75 0 75 0 3 -517 2 -518 -65 0 -65 0 -300 376 -300 377 -2 -374 -3 -374
-77 -3 -78 -3 0 521 0 520 64 0 65 0 133 -167z"/>
</g>
</svg>
